{"title":"Jab Harry met Sejal 2017 Pre-DVD x264 AAC { TaRa }","magnet":"magnet:?xt=urn:btih:39a0f830a492b259ab4e9b4005bbf8cec29d6ea8&dn=Jab+Harry+met+Sejal+2017+Pre-DVD+x264+AAC+%7B+TaRa+%7D&tr=udp%3A%2F%2Ftracker.leechers-paradise.org%3A6969&tr=udp%3A%2F%2Fzer0day.ch%3A1337&tr=udp%3A%2F%2Fopen.demonii.com%3A1337&tr=udp%3A%2F%2Ftracker.coppersurfer.tk%3A6969&tr=udp%3A%2F%2Fexodus.desync.com%3A6969","uploader":"SkTaRa","categoryP":"video","categoryS":"movies","size":"697387209","seeders":"18","leechers":"90","description":"===================================================================\r\nGeneral\r\nComplete name               : Jab Harry met Sejal 2017 Pre-DVD x264 AAC { TaRa }.mkv\r\nFormat                      : Matroska\r\nFormat version              : Version 4 / Version 2\r\nFile size                   : 665 MiB\r\nDuration                    : 2 h 19 min\r\nOverall bit rate            : 667 kb/s\r\n===================================================================\r\nVideo\r\nID                          : 1\r\nFormat                      : AVC\r\nFormat/Info                 : Advanced Video Codec\r\nFormat profile              : <a class=\"__cf_email__\" href=\"/cdn-cgi/l/email-protection\" data-cfemail=\"b5fddcd2ddf5f9869b84\">[email&#xA0;protected]</a><script data-cfhash=\"f9e31\" type=\"text/javascript\">/* <![CDATA[ */!function(t,e,r,n,c,a,p){try{t=document.currentScript||function(){for(t=document.getElementsByTagName('script'),e=t.length;e--;)if(t[e].getAttribute('data-cfhash'))return t[e]}();if(t&&(c=t.previousSibling)){p=t.parentNode;if(a=c.getAttribute('data-cfemail')){for(e='',r='0x'+a.substr(0,2)|0,n=2;a.length-n;n+=2)e+='%'+('0'+('0x'+a.substr(n,2)^r).toString(16)).slice(-2);p.replaceChild(document.createTextNode(decodeURIComponent(e)),c)}p.removeChild(t)}}catch(u){}}()/* ]]> */</script>\r\nFormat settings, CABAC      : Yes\r\nFormat settings, ReFrames   : 5 frames\r\nCodec ID                    : V_MPEG4/ISO/AVC\r\nDuration                    : 2 h 19 min\r\nBit rate                    : 512 kb/s\r\nWidth                       : 720 pixels\r\nHeight                      : 288 pixels\r\nDisplay aspect ratio        : 2.500\r\nFrame rate mode             : Constant\r\nFrame rate                  : 25.000 FPS\r\nColor space                 : YUV\r\nChroma subsampling          : 4:2:0\r\nBit depth                   : 8 bits\r\nScan type                   : Progressive\r\nBits/(Pixel*Frame)          : 0.099\r\nStream size                 : 514 MiB (77%)\r\nTitle                       : .....::::: TaRa :::::.....\r\nLanguage                    : Hindi\r\nDefault                     : Yes\r\nForced                      : No\r\n===================================================================\r\nAudio\r\nID                          : 2\r\nFormat                      : AAC\r\nFormat/Info                 : Advanced Audio Codec\r\nFormat profile              : LC\r\nCodec ID                    : A_AAC\r\nDuration                    : 2 h 19 min\r\nBit rate                    : 150 kb/s\r\nChannel(s)                  : 2 channels\r\nChannel positions           : Front: L R\r\nSampling rate               : 44.1 kHz\r\nFrame rate                  : 43.066 FPS (1024 spf)\r\nCompression mode            : Lossy\r\nStream size                 : 149 MiB (22%)\r\nTitle                       : .....::::: TaRa :::::.....\r\nLanguage                    : Hindi\r\nDefault                     : Yes\r\nForced                      : No\r\n=================================================================== <a href=\"\nhttps://extraimage.net/image/NAwj\" rel=\"nofollow\" target=\"_NEW\">\nhttps://extraimage.net/image/NAwj</a> <a href=\"\nhttps://extraimage.net/image/NAwT\" rel=\"nofollow\" target=\"_NEW\">\nhttps://extraimage.net/image/NAwT</a> <a href=\"\nhttps://extraimage.net/image/NAws\" rel=\"nofollow\" target=\"_NEW\">\nhttps://extraimage.net/image/NAws</a> <a href=\"\nhttps://extraimage.net/image/NAwn\" rel=\"nofollow\" target=\"_NEW\">\nhttps://extraimage.net/image/NAwn</a> <a href=\"\nhttps://extraimage.net/image/NAw7\" rel=\"nofollow\" target=\"_NEW\">\nhttps://extraimage.net/image/NAw7</a> <a href=\"\nhttps://extraimage.net/image/NAwc\" rel=\"nofollow\" target=\"_NEW\">\nhttps://extraimage.net/image/NAwc</a> <a href=\"\nhttps://extraimage.net/image/NAw1\" rel=\"nofollow\" target=\"_NEW\">\nhttps://extraimage.net/image/NAw1</a> <a href=\"\nhttps://extraimage.net/image/NAwE\" rel=\"nofollow\" target=\"_NEW\">\nhttps://extraimage.net/image/NAwE</a> <a href=\"\nhttps://extraimage.net/image/NAwO\" rel=\"nofollow\" target=\"_NEW\">\nhttps://extraimage.net/image/NAwO</a> <a href=\"\nhttps://extraimage.net/image/NAwS\" rel=\"nofollow\" target=\"_NEW\">\nhttps://extraimage.net/image/NAwS</a> <a href=\"\nhttps://extraimage.net/image/NAwq\" rel=\"nofollow\" target=\"_NEW\">\nhttps://extraimage.net/image/NAwq</a> <a href=\"\nhttps://extraimage.net/image/NAwy\" rel=\"nofollow\" target=\"_NEW\">\nhttps://extraimage.net/image/NAwy</a> <a href=\"\nhttps://extraimage.net/image/NAwQ\" rel=\"nofollow\" target=\"_NEW\">\nhttps://extraimage.net/image/NAwQ</a> <a href=\"\nhttps://extraimage.net/image/NAwR\" rel=\"nofollow\" target=\"_NEW\">\nhttps://extraimage.net/image/NAwR</a> <a href=\"\nhttps://extraimage.net/image/NAwm\" rel=\"nofollow\" target=\"_NEW\">\nhttps://extraimage.net/image/NAwm</a> <a href=\"\nhttps://extraimage.net/image/NAwi\" rel=\"nofollow\" target=\"_NEW\">\nhttps://extraimage.net/image/NAwi</a> <a href=\"\nhttps://extraimage.net/image/NAwl\" rel=\"nofollow\" target=\"_NEW\">\nhttps://extraimage.net/image/NAwl</a> <a href=\"\nhttps://extraimage.net/image/NAwI\" rel=\"nofollow\" target=\"_NEW\">\nhttps://extraimage.net/image/NAwI</a>","last_updated":"2017-08-05T12:03:28.206Z","parsed":{"xt":"urn:btih:39a0f830a492b259ab4e9b4005bbf8cec29d6ea8","dn":"Jab Harry met Sejal 2017 Pre-DVD x264 AAC { TaRa }","tr":["udp://exodus.desync.com:6969","udp://open.demonii.com:1337","udp://tracker.coppersurfer.tk:6969","udp://tracker.leechers-paradise.org:6969","udp://zer0day.ch:1337"],"infoHash":"39a0f830a492b259ab4e9b4005bbf8cec29d6ea8","infoHashBuffer":{"type":"Buffer","data":[57,160,248,48,164,146,178,89,171,78,155,64,5,187,248,206,194,157,110,168]},"name":"Jab Harry met Sejal 2017 Pre-DVD x264 AAC { TaRa }","announce":["udp://exodus.desync.com:6969","udp://open.demonii.com:1337","udp://tracker.coppersurfer.tk:6969","udp://tracker.leechers-paradise.org:6969","udp://zer0day.ch:1337"],"urlList":[]}}